<?xml version="1.0" encoding="utf-8"?>
<!-- Generator: Adobe Illustrator 18.0.0, SVG Export Plug-In . SVG Version: 6.00 Build 0)  -->
<!DOCTYPE svg PUBLIC "-//W3C//DTD SVG 1.1//EN" "http://www.w3.org/Graphics/SVG/1.1/DTD/svg11.dtd">
<svg id="icon-behance" version="1.1" xmlns="http://www.w3.org/2000/svg" xmlns:xlink="http://www.w3.org/1999/xlink" x="0px" y="0px"
	 viewBox="0 0 48 48" enable-background="new 0 0 48 48" xml:space="preserve">
<g id="behance">
	<polygon fill-rule="evenodd" clip-rule="evenodd" fill="#38BDC9" points="32.9,19.1 32.9,17.7 27.4,17.7 27.4,19.1 32.9,19.1 		
		"/>
	<path fill-rule="evenodd" clip-rule="evenodd" fill="#38BDC9" d="M22.1,23.5c0.5-0.2,0.8-0.5,1-0.8c0.4-0.5,0.6-1.2,0.6-2
		c0-0.8-0.2-1.5-0.6-2.1c-0.7-0.9-1.9-1.4-3.5-1.5H13v13.7h6.2c0.7,0,1.3-0.1,1.9-0.2c0.6-0.1,1.1-0.4,1.5-0.7
		c0.4-0.3,0.7-0.6,1-1.1c0.4-0.6,0.6-1.4,0.6-2.2c0-0.8-0.2-1.5-0.5-2C23.3,24.2,22.8,23.8,22.1,23.5z M16.2,19.5h2.5
		c0.7,0,1.2,0.1,1.6,0.2c0.5,0.2,0.7,0.6,0.7,1.3c0,0.6-0.2,1-0.6,1.2c-0.4,0.2-0.9,0.3-1.4,0.3h-2.9V19.5z M20.4,28.2
		c-0.3,0.2-0.8,0.2-1.4,0.2h-2.9v-3.6h2.9c0.6,0,1,0.1,1.4,0.2c0.6,0.3,0.9,0.8,0.9,1.5C21.3,27.4,21,27.9,20.4,28.2z"/>
	<path fill-rule="evenodd" clip-rule="evenodd" fill="#38BDC9" d="M34.1,22.3c-0.4-0.7-1-1.1-1.7-1.5c-0.7-0.3-1.5-0.5-2.3-0.5
		c-1.4,0-2.6,0.5-3.5,1.4c-0.9,0.9-1.3,2.2-1.3,3.9c0,1.8,0.5,3.1,1.5,3.9c1,0.8,2.1,1.2,3.5,1.2c1.6,0,2.8-0.5,3.7-1.4
		c0.6-0.6,0.9-1.2,0.9-1.8h-2.6c-0.2,0.3-0.3,0.5-0.5,0.7c-0.4,0.3-0.8,0.5-1.4,0.5c-0.6,0-1-0.1-1.4-0.4c-0.6-0.4-1-1.1-1-2.1H35
		c0-0.8,0-1.5-0.1-1.9C34.8,23.5,34.5,22.8,34.1,22.3z M27.9,24.5c0.1-0.6,0.3-1.1,0.7-1.5c0.4-0.4,0.9-0.6,1.5-0.6
		c0.6,0,1.1,0.2,1.5,0.5c0.4,0.4,0.6,0.9,0.7,1.5H27.9z"/>
	<path fill-rule="evenodd" clip-rule="evenodd" fill="#38BDC9" d="M24,2C11.8,2,2,11.8,2,24s9.8,22,22,22s22-9.8,22-22S36.2,2,24,2
		z M24,44C13,44,4,35,4,24C4,13,13,4,24,4s20,9,20,20C44,35,35,44,24,44z"/>
</g>
</svg>
